<svg width="36" height="36" viewBox="0 0 36 36" fill="none" xmlns="http://www.w3.org/2000/svg">
<path d="M14.5207 5.58097L14.4602 5.34133C14.344 4.88122 13.9804 4.18758 13.5389 3.50094C13.1023 2.82181 12.6376 2.22308 12.3683 1.95332C12.0469 1.63194 11.6713 1.4526 11.3405 1.40523C11.0101 1.35792 10.7576 1.44264 10.6009 1.59914C10.4442 1.75659 10.3595 2.0096 10.4067 2.34005C10.454 2.67095 10.6332 3.04656 10.9548 3.36856C10.9548 3.36857 10.9548 3.36857 10.9548 3.36858M14.5207 5.58097L10.601 3.72191L10.9548 3.36858M14.5207 5.58097L13.8302 5.27562C13.3233 5.05145 12.7219 4.69445 12.1786 4.32486C11.632 3.95308 11.1777 3.59146 10.9548 3.36858M14.5207 5.58097L10.9548 3.36858M22.561 11.7738L22.3677 12.241L22.8371 12.4291C24.3291 13.0266 25.5588 13.939 26.417 15.1778C27.2741 16.4151 27.781 18.0074 27.781 19.9999C27.781 21.0643 27.6315 22.1561 27.3586 23.2348L27.3263 23.3584C26.1437 27.8783 22.8151 31.8768 18.9266 32.4299L18.48 32.4934L18.4974 32.9441L18.4986 32.9703L18.4995 32.9879C18.5 32.9971 18.5 32.9995 18.5 32.9999C18.5 33.7897 18.3927 34.4838 18.233 34.9632C18.1535 35.2017 18.0698 35.3605 18.0002 35.4504C17.9306 35.3604 17.8468 35.2016 17.7673 34.9631C17.6079 34.485 17.5006 33.7934 17.5 33.0064L17.5018 32.9371L17.5135 32.4916L17.0724 32.4289C13.184 31.8758 9.8563 27.8774 8.67371 23.3573L8.63651 23.2152C8.36753 22.1434 8.21899 21.0575 8.21899 19.9999C8.21899 18.0074 8.72584 16.4151 9.583 15.1778C10.4411 13.939 11.6709 13.0266 13.1629 12.4291L13.6323 12.241L13.439 11.7738C13.0436 10.8179 12.812 9.78369 12.812 8.76491C12.812 7.29881 13.2616 6.56691 13.9003 6.15228L14.5573 5.72573L14.5789 5.81127L15.0523 5.70726C15.8753 5.52644 16.8711 5.49991 18 5.49991C19.1299 5.49991 20.1245 5.52645 20.9483 5.70817L21.422 5.81266L21.4442 5.72474L22.1001 6.1519C22.7385 6.56763 23.188 7.29908 23.188 8.76491C23.188 9.78272 22.9564 10.8179 22.561 11.7738ZM17.9403 35.5128C17.9403 35.5126 17.9414 35.5119 17.9436 35.5107C17.9414 35.5123 17.9403 35.5129 17.9403 35.5128ZM18.0569 35.5109C18.0591 35.512 18.0602 35.5128 18.0602 35.5129C18.0601 35.513 18.059 35.5124 18.0569 35.5109ZM22.1709 5.27555L21.4806 5.58053L21.5408 5.34233C21.657 4.88218 22.0206 4.18827 22.4621 3.50153C22.8989 2.82208 23.3635 2.22346 23.6325 1.95446C23.9546 1.63242 24.3302 1.45313 24.6607 1.40588C24.991 1.35867 25.2435 1.44356 25.4004 1.60046C25.5571 1.75716 25.642 2.00975 25.5947 2.34042C25.5473 2.6713 25.3679 3.04689 25.0464 3.36835L25.0461 3.3687C24.8239 3.59133 24.3699 3.95295 23.8232 4.32486C23.2799 4.69441 22.6783 5.05139 22.1709 5.27555Z" fill="black" stroke="#EFE337"/>
<path d="M18 13.5049C18 16.1519 10.142 22.0889 6 22.0889C1.858 22.0889 0 19.6459 0 16.9989C0 14.3529 1.858 12.5039 6 12.5039C10.143 12.5049 18 10.8599 18 13.5049ZM18 13.5049C18 16.1519 25.857 22.0889 30 22.0889C34.143 22.0889 36 19.6459 36 16.9989C36 14.3529 34.143 12.5039 30 12.5039C25.857 12.5039 18 10.8599 18 13.5049Z" fill="black"/>
<path d="M14.6241 19H21.3761C19.9141 17.576 18.7611 16.119 18.2701 15H17.7301C17.2391 16.119 16.0861 17.576 14.6241 19V19ZM9.24608 23C8.88508 23.187 8.53108 23.349 8.18408 23.488C8.50408 24.707 8.98308 25.895 9.58508 27H26.4151C27.0221 25.8901 27.4925 24.7109 27.8161 23.488C27.4542 23.3424 27.0994 23.1796 26.7531 23H9.24608ZM12.8391 31C14.3571 32.234 16.1171 33 18.0001 33C19.8841 33 21.6431 32.234 23.1621 31H12.8391Z" fill="#EFE337"/>
<path d="M17.478 14.5392C17.6932 14.138 17.8 13.7895 17.8 13.5049C17.8 13.231 17.7011 13.0199 17.5178 12.8487C17.3281 12.6716 17.0398 12.5303 16.6552 12.4258C15.8847 12.2165 14.7988 12.1727 13.5601 12.2128C12.4166 12.2499 11.1616 12.3576 9.9327 12.463C9.8349 12.4714 9.73726 12.4798 9.63986 12.4881C8.3225 12.6007 7.04585 12.7042 6 12.7039L17.478 14.5392ZM17.478 14.5392C17.2641 14.9381 16.9506 15.3749 16.556 15.8322M17.478 14.5392L16.556 15.8322M16.556 15.8322C15.767 16.7467 14.6676 17.7269 13.4352 18.6281M16.556 15.8322L13.4352 18.6281M13.4352 18.6281C12.2033 19.529 10.8445 20.3464 9.53984 20.9378M13.4352 18.6281L9.53984 20.9378M9.53984 20.9378C8.23132 21.5309 6.994 21.8889 6 21.8889M9.53984 20.9378L6 21.8889M6 21.8889C3.96885 21.8889 2.52248 21.2907 1.58515 20.3922M6 21.8889L1.58515 20.3922M1.58515 20.3922C0.64734 19.4932 0.2 18.2754 0.2 16.9989M1.58515 20.3922L0.2 16.9989M0.2 16.9989C0.2 15.7263 0.644481 14.6639 1.57238 13.9148M0.2 16.9989L1.57238 13.9148M1.57238 13.9148C2.50641 13.1607 3.95526 12.7039 5.99995 12.7039L1.57238 13.9148ZM18.5219 14.5392C18.3068 14.138 18.2 13.7895 18.2 13.5049C18.2 13.231 18.2989 13.0199 18.4822 12.8487C18.6719 12.6715 18.9602 12.5302 19.3449 12.4257C20.1153 12.2162 21.2012 12.1723 22.4399 12.2125C23.5847 12.2495 24.841 12.3573 26.0712 12.4629C26.1677 12.4712 26.264 12.4794 26.3601 12.4877C27.6775 12.6003 28.9542 12.7039 30 12.7039C32.0452 12.7039 33.4941 13.1607 34.428 13.9148C35.3557 14.6639 35.8 15.7263 35.8 16.9989C35.8 18.2754 35.3529 19.4932 34.4152 20.3922C33.478 21.2907 32.0317 21.8889 30 21.8889C29.0057 21.8889 27.7683 21.5309 26.4597 20.9378C25.155 20.3464 23.7963 19.529 22.5644 18.6281C21.3321 17.727 20.2327 16.7467 19.4438 15.8322C19.0493 15.375 18.7359 14.9381 18.5219 14.5392Z" fill="black" stroke="#EFE337" stroke-width="0.4"/>
</svg>
