<svg width="24" height="24" viewBox="0 0 24 24" fill="none" xmlns="http://www.w3.org/2000/svg">
<path d="M19.442 21.355C19.992 21.165 20.182 21.099 20.432 20.982C20.774 20.83 21.037 20.592 21.037 20.164C21.0374 19.9813 20.9787 19.8034 20.8697 19.6569C20.7606 19.5103 20.6071 19.403 20.432 19.351C20.114 19.259 19.729 19.393 19.442 19.473L14.022 20.933C12.6933 21.2905 11.2937 21.2905 9.96498 20.933L4.55798 19.473C4.27098 19.393 3.88598 19.259 3.56798 19.351C3.39296 19.4032 3.2395 19.5105 3.13047 19.657C3.02145 19.8035 2.96269 19.9814 2.96298 20.164C2.96298 20.591 3.22598 20.83 3.56798 20.982C3.81798 21.099 4.00798 21.166 4.55798 21.355L9.69598 23.145C11.1856 23.665 12.8074 23.665 14.297 23.145L19.442 21.355ZM10.179 18.131C11.3732 18.4243 12.6207 18.4243 13.815 18.131L21.825 16.164C22.332 16.042 22.534 15.999 22.815 15.907C23.169 15.791 23.42 15.492 23.42 15.101C23.4203 14.9184 23.3615 14.7405 23.2525 14.594C23.1435 14.4475 22.99 14.3402 22.815 14.288C22.534 14.208 22.118 14.312 21.825 14.368L13.161 15.913C12.3888 16.0472 11.5992 16.0472 10.827 15.913L2.17498 14.368C1.88198 14.312 1.46698 14.208 1.18498 14.288C1.01015 14.3403 0.856909 14.4478 0.748074 14.5943C0.639239 14.7408 0.580631 14.9185 0.580977 15.101C0.580977 15.491 0.830976 15.791 1.18498 15.907C1.46698 15.999 1.66798 16.042 2.17498 16.164L10.179 18.131ZM14.75 0.620984C12.9189 0.413123 11.0701 0.413123 9.23898 0.620984L6.49498 0.932984C6.20098 0.962984 5.77998 0.987984 5.50498 1.07298C5.22498 1.16498 4.89998 1.42798 4.89998 1.87998C4.89998 2.26998 5.15698 2.58198 5.50498 2.68598C5.78598 2.76598 6.20098 2.75998 6.49498 2.75998H17.505C17.798 2.75998 18.214 2.76598 18.495 2.68598C18.6699 2.63588 18.8236 2.53003 18.9328 2.38455C19.042 2.23906 19.1007 2.06189 19.1 1.87998C19.1 1.42798 18.776 1.16498 18.495 1.07298C18.22 0.987984 17.798 0.962984 17.505 0.932984L14.75 0.620984ZM20.787 7.38798C21.087 7.36898 21.496 7.35098 21.777 7.27198C21.9519 7.22144 22.1057 7.1154 22.2152 6.96984C22.3247 6.82429 22.3838 6.6471 22.3838 6.46498C22.3838 6.28286 22.3247 6.10568 22.2152 5.96012C22.1057 5.81457 21.9519 5.70853 21.777 5.65798C21.496 5.57298 21.087 5.58498 20.787 5.58498H3.21398C2.91398 5.58498 2.50498 5.57298 2.22398 5.65798C2.04901 5.70853 1.89521 5.81457 1.78576 5.96012C1.6763 6.10568 1.61711 6.28286 1.61711 6.46498C1.61711 6.6471 1.6763 6.82429 1.78576 6.96984C1.89521 7.1154 2.04901 7.22144 2.22398 7.27198C2.50498 7.35098 2.91398 7.36898 3.21398 7.38798L11.022 7.94398C11.664 7.98598 12.33 7.98598 12.965 7.94398L20.787 7.38798ZM22.407 11.63C22.92 11.55 23.115 11.526 23.396 11.428C23.75 11.307 24.001 11.019 24.001 10.622C24.0009 10.4403 23.9419 10.2635 23.8328 10.1182C23.7237 9.97285 23.5704 9.86682 23.396 9.81598C23.116 9.72998 22.706 9.79698 22.406 9.82798L13.174 10.757C12.39 10.836 11.6 10.836 10.816 10.757L1.59598 9.82698C1.29598 9.79698 0.880977 9.72998 0.605977 9.81598C0.431524 9.86682 0.278259 9.97285 0.169177 10.1182C0.0600939 10.2635 0.00107571 10.4403 0.000976562 10.622C0.000976562 11.019 0.250977 11.307 0.605977 11.428C0.880977 11.52 1.08198 11.551 1.59598 11.63L10.419 13.048C11.457 13.213 12.539 13.213 13.577 13.048L22.407 11.63Z" fill="#222221"/>
</svg>
